<!DOCTYPE svg PUBLIC "-//W3C//DTD SVG 1.1//EN" "http://www.w3.org/Graphics/SVG/1.1/DTD/svg11.dtd">
<!-- Uploaded to: SVG Repo, www.svgrepo.com, Transformed by: SVG Repo Mixer Tools -->
<svg width="800px" height="800px" viewBox="0 -19.65 386.047 386.047" xmlns="http://www.w3.org/2000/svg" fill="#000000">
<g id="SVGRepo_bgCarrier" stroke-width="0"/>
<g id="SVGRepo_tracerCarrier" stroke-linecap="round" stroke-linejoin="round"/>
<g id="SVGRepo_iconCarrier">
<defs>
<style>.a{fill:#ffffff;}.b{fill:#ffffff;}.c{fill:#ffffff;}.d{fill:#ffffff;}.e{fill:#ffffff;}.f{fill:#ffffff;}.g{fill:#ffffff;}</style>
</defs>
<path class="a" d="M312.05,344.743c-.09,0-.18-.01-.27-.01-24.92-.87-44.67-12.81-44.67-27.42v-5.99c0-15.17,21.3-27.47,47.58-27.47s47.58,12.3,47.58,27.47a16.407,16.407,0,0,1-.67,4.63v.01"/>
<path class="b" d="M29.667,167.2,4.152,181.933.485,184.05a1,1,0,0,0,1.01,1.727l25.516-14.732,3.666-2.117a1,1,0,0,0-1.01-1.727Z"/>
<path class="b" d="M196.02,71.159l-28.943,16.71-4.161,2.4A1,1,0,0,0,163.925,92l28.943-16.71,4.161-2.4a1,1,0,0,0-1.009-1.727Z"/>
<path class="b" d="M344.909,214.678l16.32,9.42,2.336,1.348a1,1,0,0,0,1.01-1.727l-16.321-9.42-2.336-1.348a1,1,0,0,0-1.009,1.727Z"/>
<path class="b" d="M166.909,111.938l25.9,14.947,3.646,2.1a1,1,0,0,0,1.009-1.727l-25.9-14.947-3.646-2.1a1,1,0,0,0-1.009,1.727Z"/>
<path class="b" d="M379.293,172.831l-22.61,13.052-15.926,9.2-23.914,13.81-17.665,10.2L278.721,230.9l-21.1,12.18-17.146,9.9-24.217,13.985L200.9,275.834l-25.782,14.888-2.111,1.22a1,1,0,0,0,1.009,1.727l22.366-12.916,14.463-8.352,27.208-15.712,13.706-7.913,26.087-15.061,15.166-8.757,23.927-13.814L334.509,201l20.562-11.874,22.744-13.129,2.488-1.436a1,1,0,0,0-1.01-1.727Z"/>
<path class="b" d="M211.061,218.07l-8.368,4.834-20.207,11.672L158.138,248.64l-21.06,12.165-7,4.044c-1.085.626-2.249,1.193-3.286,1.9-.045.031-.095.056-.143.083a1,1,0,0,0,1.01,1.727l8.367-4.833,20.208-11.673,24.348-14.064,21.06-12.164,7-4.044c1.084-.627,2.248-1.194,3.285-1.9.045-.031.1-.055.143-.083a1,1,0,0,0-1.009-1.727Z"/>
<path class="b" d="M115.353,221.473Q105.375,227.236,95.4,233L77.521,243.315l-10.986,6.344a1,1,0,0,0,1.01,1.727L87.2,240.04l18.652-10.768,10.515-6.072a1,1,0,0,0-1.009-1.727Z"/>
<path class="b" d="M46.273,209.489,24.712,221.937l-3.087,1.782a1,1,0,0,0,1.01,1.727L44.2,213l3.086-1.782a1,1,0,0,0-1.009-1.727Z"/>
<path class="b" d="M203.492,118.719l-18.914,10.92-2.707,1.563a1,1,0,0,0,1.009,1.727l18.914-10.92,2.707-1.563a1,1,0,0,0-1.009-1.727Z"/>
<path class="b" d="M205.535,287.519,183.4,274.735l-14.148-8.169-27.19-15.693q-6.525-3.765-13.048-7.534l-26.7-15.42q-6.894-3.981-13.789-7.961L63,205.218l-15.143-8.742L24.168,182.8,5.7,172.138,1.5,169.709a1,1,0,0,0-1.01,1.727l20.848,12.037q9.12,5.268,18.241,10.532l20.955,12.1,19.892,11.484q9.087,5.247,18.173,10.492l22.651,13.083q7.993,4.617,15.987,9.233l24.754,14.288q7.449,4.3,14.9,8.6l25.542,14.752,2.1,1.214a1,1,0,0,0,1.01-1.727Z"/>
<path class="b" d="M159.242,211.216l11.385,6.574,27.342,15.789,33.078,19.1,28.594,16.512,9.422,5.441c1.48.855,2.94,1.813,4.469,2.58.066.033.129.075.193.112a1,1,0,0,0,1.01-1.727l-11.385-6.574-27.342-15.789-33.078-19.1-28.595-16.512-9.421-5.441c-1.481-.855-2.941-1.813-4.469-2.58-.066-.034-.129-.075-.194-.112a1,1,0,0,0-1.009,1.727Z"/>
<path class="b" d="M346,163.427l16.9,9.759,13.269,7.66,8.389,4.842a1,1,0,0,0,1.01-1.727l-16.422-9.478q-7.332-4.231-14.663-8.467L347,161.7A1,1,0,0,0,346,163.427Z"/>
<path class="b" d="M180.976,68.154l23.588,13.622,15.4,8.893,22.674,13.088,31.888,18.408c6.224,3.593,12.381,7.354,18.693,10.79.1.054.195.113.293.169a1,1,0,0,0,1.009-1.727l-15.557-8.98L247.38,104.184,222.445,89.791l-13.127-7.58L182.559,66.758l-.573-.331a1,1,0,0,0-1.01,1.727Z"/>
<path class="a" d="M271.472,21.188C261.2,15.251,249.717,8.63,238.231,2c-11.471,6.624-22.942,13.237-33.2,19.167,0,55.545,0,111.1,0,111.106,11.3,6.544,33.045,19.094,33.2,19.182,10.27-5.925,21.755-12.558,33.241-19.191Z"/>
<path class="c" d="M271.338,42.979c-11.42,6.6-22.839,13.188-33.065,19.1-.055.034-.122.067-.177.1-.166-.1-.32-.188-.475-.276-10.093-5.826-21.336-12.327-32.59-18.827V57.449c11.254,6.5,22.5,13,32.59,18.827.155.088.309.177.475.276.055-.033.122-.066.177-.1,10.226-5.915,21.645-12.5,33.065-19.1h.177V42.979Z"/>
<path class="c" d="M271.338,71.932c-11.42,6.6-22.839,13.189-33.065,19.1-.055.033-.122.066-.177.1-.166-.1-.32-.188-.475-.276-10.093-5.826-21.336-12.326-32.59-18.826V86.4c11.254,6.5,22.5,13,32.59,18.826.155.089.309.177.475.277.055-.034.122-.067.177-.1,10.226-5.914,21.645-12.5,33.065-19.1h.177V71.932Z"/>
<path class="c" d="M271.338,100.886c-11.42,6.6-22.839,13.188-33.065,19.1-.055.034-.122.067-.177.1-.166-.1-.32-.188-.475-.276-10.093-5.826-21.336-12.327-32.59-18.827v14.371c11.254,6.5,22.5,13,32.59,18.827.155.088.309.177.475.276.055-.033.122-.066.177-.1,10.226-5.915,21.645-12.5,33.065-19.1h.177V100.886Z"/>
<path class="d" d="M270.463,130.534q-16.62,9.6-33.242,19.191h2.019q-12.312-7.068-24.591-14.194l-8.651-5c-2.233-1.29-4.249,2.165-2.019,3.454q12.457,7.2,24.919,14.388,3.878,2.238,7.755,4.475c.177.1.351.216.534.308,1.466.739,2.758-.386,3.993-1.1l9.238-5.332,22.064-12.74c2.228-1.287.216-4.745-2.019-3.454Z"/>
<path class="d" d="M204.022,117.083q13.626,7.872,27.251,15.745l2.989,1.726a24.261,24.261,0,0,0,3.064,1.733c1.179.463,2.13-.3,3.112-.869l3.325-1.922q6.532-3.775,13.067-7.549,7.76-4.481,15.517-8.963c2.229-1.288.217-4.746-2.018-3.454-11.077,6.4-22.092,12.93-33.242,19.2h2.019c-10.969-6.456-22.044-12.737-33.065-19.1-2.233-1.289-4.25,2.166-2.019,3.454Z"/>
<path class="d" d="M204.022,102.712q13.626,7.871,27.251,15.744l2.989,1.726a24.145,24.145,0,0,0,3.064,1.734c1.179.463,2.13-.3,3.112-.869l3.325-1.922q6.532-3.775,13.067-7.549,7.76-4.48,15.517-8.963c2.229-1.288.217-4.746-2.018-3.454-11.077,6.4-22.092,12.93-33.242,19.2h2.019c-10.969-6.456-22.044-12.737-33.065-19.1-2.233-1.29-4.25,2.166-2.019,3.454Z"/>
<path class="d" d="M204.022,88.13q13.626,7.87,27.251,15.744l2.989,1.726a24.138,24.138,0,0,0,3.064,1.733c1.179.463,2.13-.3,3.112-.868l3.325-1.922q6.532-3.777,13.067-7.549,7.76-4.48,15.517-8.964c2.229-1.287.217-4.745-2.018-3.453-11.077,6.4-22.092,12.93-33.242,19.2h2.019c-10.969-6.456-22.044-12.737-33.065-19.1-2.233-1.29-4.25,2.165-2.019,3.454Z"/>
<path class="d" d="M204.022,73.759Q217.648,81.63,231.273,89.5l2.989,1.726a24.261,24.261,0,0,0,3.064,1.733c1.179.463,2.13-.3,3.112-.868l3.325-1.923Q250.3,86.4,256.83,82.623q7.76-4.482,15.517-8.964c2.229-1.287.217-4.745-2.018-3.454-11.077,6.4-22.092,12.93-33.242,19.2h2.019c-10.969-6.455-22.044-12.736-33.065-19.1-2.233-1.29-4.25,2.165-2.019,3.454Z"/>
<path class="d" d="M204.022,59.176q13.626,7.872,27.251,15.745l2.989,1.726a24.261,24.261,0,0,0,3.064,1.733c1.179.463,2.13-.3,3.112-.869l3.325-1.922q6.532-3.775,13.067-7.549,7.76-4.481,15.517-8.963c2.229-1.288.217-4.746-2.018-3.454-11.077,6.4-22.092,12.93-33.242,19.2h2.019c-10.969-6.455-22.044-12.737-33.065-19.1-2.233-1.29-4.25,2.165-2.019,3.453Z"/>
<path class="d" d="M204.022,44.805q13.626,7.871,27.251,15.744l2.989,1.726a24.145,24.145,0,0,0,3.064,1.734c1.179.463,2.13-.3,3.112-.869l3.325-1.922q6.532-3.776,13.067-7.549,7.76-4.48,15.517-8.963c2.229-1.288.217-4.746-2.018-3.454-11.077,6.4-22.092,12.93-33.242,19.2h2.019c-10.969-6.456-22.044-12.737-33.065-19.1-2.233-1.29-4.25,2.166-2.019,3.454Z"/>
<path class="d" d="M236.273,40.689v95.973c0,4.437-.162,8.909,0,13.344,0,.073,0,.146,0,.219,0,2.574,4,2.578,4,0V54.252c0-4.437.162-8.909,0-13.344,0-.073,0-.147,0-.219,0-2.574-4-2.578-4,0Z"/>
<path class="d" d="M270.505,19.461q-16.619,9.6-33.241,19.191h2.019Q222.638,29.1,206.041,19.461c-2.233-1.29-4.25,2.165-2.019,3.454q13.532,7.817,27.068,15.625c2.011,1.161,3.993,2.435,6.057,3.5,1.275.658,2.171.046,3.3-.6l3.34-1.927q6.569-3.791,13.135-7.583,7.8-4.5,15.606-9.011c2.229-1.287.217-4.745-2.019-3.454Z"/>
<path class="d" d="M206,22.915q16.615-9.6,33.242-19.191h-2.019q16.62,9.6,33.242,19.191c2.233,1.29,4.249-2.165,2.019-3.454Q255.866,9.857,239.24.27a2.022,2.022,0,0,0-2.019,0q-16.62,9.6-33.242,19.191c-2.228,1.288-.216,4.746,2.019,3.454Z"/>
<path class="d" d="M269.472,21.188V118.5c0,4.5-.17,9.044,0,13.545,0,.072,0,.145,0,.217,0,2.574,4,2.578,4,0V34.944c0-4.5.17-9.041,0-13.54,0-.072,0-.144,0-.216,0-2.574-4-2.578-4,0Z"/>
<path class="d" d="M203.031,21.188V118.5c0,4.5-.17,9.044,0,13.545,0,.072,0,.145,0,.217,0,2.574,4,2.578,4,0V34.944c0-4.5.17-9.041,0-13.54,0-.072,0-.144,0-.216,0-2.574-4-2.578-4,0Z"/>
<path class="d" d="M312.05,342.743c-12.539-.465-26.7-3.48-36.235-12.225-3.283-3.009-6.026-6.965-6.6-11.332a54.809,54.809,0,0,1-.1-8.236,14.773,14.773,0,0,1,1.422-5.92c2.144-4.5,5.969-7.956,10.136-10.572a55.255,55.255,0,0,1,17.438-6.847c13.867-3.09,29.142-2.352,42.443,2.781,8.62,3.327,19.314,10.161,19.7,20.311a14.815,14.815,0,0,1-.1,2.5,22.028,22.028,0,0,0-.561,2.76c0,2.573,4,2.578,4,0a8.45,8.45,0,0,0,.311-1.072c.106-.558.188-1.123.25-1.688a16.932,16.932,0,0,0,.085-2.748,19.176,19.176,0,0,0-.586-3.81,20.965,20.965,0,0,0-3.207-6.754,36.4,36.4,0,0,0-13.592-11.055c-13.565-6.794-29.694-8.253-44.557-6.052-12.277,1.817-26.281,6.737-33.6,17.433a20.6,20.6,0,0,0-3.1,6.907,37.3,37.3,0,0,0-.492,8.48,22.85,22.85,0,0,0,1.031,7.756,23.517,23.517,0,0,0,3.928,6.887c3.77,4.706,9.108,8.119,14.564,10.55a70.835,70.835,0,0,0,21.654,5.559c1.917.2,3.838.315,5.763.387,2.574.1,2.57-3.9,0-4Z"/>
<path class="a" d="M126.348,214.912,37.789,163.778,127.633,111.9l89.844,51.876-89.844,51.876Z"/>
<path class="d" d="M127.358,213.185,59.092,173.769,38.8,162.051v3.454l69.4-40.071,20.445-11.8h-2.019l71.089,41.047,18.755,10.829v-3.454L145.379,203.1l-18.755,10.829h2.018l-1.284-.742c-2.234-1.289-4.25,2.166-2.019,3.454l1.285.742a2.02,2.02,0,0,0,2.018,0l69.4-40.071,20.445-11.805a2.019,2.019,0,0,0,0-3.454l-69.4-40.071-20.444-11.805a2.027,2.027,0,0,0-2.019,0l-71.09,41.047L36.779,162.051a2.019,2.019,0,0,0,0,3.454l69.888,40.353,18.672,10.781C127.572,217.929,129.589,214.474,127.358,213.185Z"/>
<path class="a" d="M127.633,85.285c10.39,6,20.78,11.99,30.07,17.36-10.39,6-20.78,12-30.07,17.36-.14-.08-.28-.16-.43-.25-9.18-5.3-19.41-11.2-29.64-17.11C106.853,97.275,117.243,91.285,127.633,85.285Z"/>
<path class="c" d="M127.633,162.255v-13c9.25-5.35,19.58-11.31,29.91-17.28h.16v13h-.16C147.213,150.945,136.883,156.905,127.633,162.255Z"/>
<path class="a" d="M127.633,162.255v17.97l-.48.83c-9.17-5.29-19.38-11.18-29.59-17.08v-18.91c10.18,5.88,20.35,11.76,29.48,17.03.14.08.28.16.43.25C127.523,162.315,127.583,162.285,127.633,162.255Z"/>
<path class="a" d="M157.7,163.975c-10.39,6-20.78,12-30.07,17.36-.14-.08-.28-.16-.43-.25-.02-.01-.03-.02-.05-.03l.48-.83v-17.97c9.25-5.35,19.58-11.31,29.91-17.28h.16Z"/>
<path class="c" d="M97.563,132.065c10.18,5.88,20.35,11.76,29.48,17.03.14.08.28.16.43.25.05-.03.11-.06.16-.09v13c-.05.03-.11.06-.16.09-.15-.09-.29-.17-.43-.25-9.13-5.27-19.3-11.15-29.48-17.03Z"/>
<path class="d" d="M156.694,162.248q-15.035,8.682-30.07,17.36h2.019q-15.057-8.642-30.07-17.36c-2.233-1.29-4.25,2.165-2.019,3.454q12.324,7.122,24.655,14.233c1.732,1,3.442,2.061,5.2,3.006,1.956,1.048,4.282-1.062,5.963-2.033q6.079-3.507,12.157-7.017l14.181-8.189c2.228-1.287.216-4.745-2.019-3.454Z"/>
<path class="d" d="M96.554,146.792q12.283,7.095,24.566,14.193c1.768,1.021,3.512,2.187,5.344,3.087,1.135.559,1.977.027,2.952-.537l2.942-1.7q6.047-3.5,12.1-6.987,7.05-4.073,14.1-8.145c2.228-1.288.216-4.745-2.019-3.454-10.02,5.791-19.984,11.7-30.07,17.37h2.019c-9.922-5.839-19.941-11.521-29.91-17.28-2.234-1.29-4.25,2.166-2.019,3.454Z"/>
<path class="d" d="M96.554,133.792q12.283,7.095,24.566,14.193c1.768,1.021,3.512,2.187,5.344,3.087,1.135.559,1.977.027,2.952-.537l2.942-1.7q6.047-3.5,12.1-6.987,7.05-4.073,14.1-8.145c2.228-1.288.216-4.745-2.019-3.454-10.02,5.791-19.984,11.7-30.07,17.37h2.019c-9.922-5.839-19.941-11.521-29.91-17.28-2.234-1.29-4.25,2.166-2.019,3.454Z"/>
<path class="d" d="M125.633,128.126v42.889c0,2.574,4,2.578,4,0V128.126c0-2.574-4-2.578-4,0Z"/>
<path class="d" d="M156.694,100.918q-15.035,8.682-30.07,17.36h2.019q-15.057-8.642-30.07-17.36c-2.234-1.29-4.25,2.165-2.019,3.454q12.246,7.075,24.5,14.142c1.813,1.047,3.6,2.211,5.466,3.158,1.209.612,2.021.12,3.1-.5q1.48-.854,2.96-1.708l11.958-6.9,14.181-8.189c2.228-1.287.216-4.745-2.019-3.454Z"/>
<path class="d" d="M98.573,104.372q15.03-8.688,30.07-17.36h-2.019q15.033,8.682,30.07,17.36c2.232,1.291,4.249-2.165,2.019-3.454q-15.031-8.688-30.07-17.36a2.027,2.027,0,0,0-2.019,0q-15.034,8.682-30.07,17.36c-2.228,1.288-.216,4.746,2.019,3.454Z"/>
<path class="d" d="M95.563,102.645v61.33c0,2.574,4,2.578,4,0v-61.33c0-2.574-4-2.578-4,0Z"/>
<path class="d" d="M155.7,102.645v61.33c0,2.574,4,2.578,4,0v-61.33c0-2.574-4-2.578-4,0Z"/>
<path class="d" d="M49.48,182.314q9.375-5.412,18.744-10.835c2.228-1.287.216-4.745-2.019-3.454q-9.372,5.416-18.744,10.836c-2.228,1.286-.216,4.744,2.019,3.453Z"/>
<path class="a" d="M248.31,176.386l9.388-5.42,9.387,5.42c0,.185,0,17.765,0,18.149l-9.387,5.419-.134-.077-9.254-5.343C248.31,194.12,248.311,176.665,248.31,176.386Z"/>
<path class="d" d="M266.076,192.807l-9.388,5.42h2.019l-9.387-5.42c-2.234-1.29-4.25,2.166-2.019,3.454l9.387,5.42a2.022,2.022,0,0,0,2.019,0l9.388-5.42c2.229-1.287.217-4.745-2.019-3.454Z"/>
<path class="d" d="M249.32,178.113l9.387-5.42h-2.019q4.695,2.709,9.388,5.42c2.234,1.29,4.25-2.166,2.019-3.454l-9.388-5.42a2.022,2.022,0,0,0-2.019,0l-9.387,5.42c-2.229,1.287-.217,4.745,2.019,3.454Z"/>
<path class="d" d="M246.31,176.386c.009,5.249,0,10.5,0,15.746v2.4c0,2.574,4,2.578,4,0V178.717q0-1.166,0-2.331c0-2.573-4-2.578-4,0Z"/>
<path class="d" d="M265.085,176.386c.01,5.249,0,10.5,0,15.746v2.4c0,2.574,4,2.578,4,0q0-7.909,0-15.817c0-.777,0-1.554,0-2.331,0-2.573-4-2.578-4,0Z"/>
<path class="d" d="M271,163.772q0-5.582,0-11.164a2.019,2.019,0,0,0-3.01-1.727l-36.643,21.153a2.011,2.011,0,0,0-.991,1.727q0,22.275.009,44.551a2.018,2.018,0,0,0,3.009,1.727L242.094,215c2.229-1.286.217-4.744-2.019-3.453l-8.721,5.035,3.01,1.727q0-22.275-.009-44.551l-.991,1.727,36.644-21.153L267,152.608q0,5.582,0,11.164c0,2.574,4,2.578,4,0Z"/>
<path class="d" d="M198.535,214.116q16.724-9.656,33.436-19.328l9.067-5.241c2.228-1.287.216-4.745-2.019-3.454q-18.3,10.577-36.6,21.159-2.951,1.706-5.9,3.41c-2.228,1.287-.216,4.745,2.019,3.454Z"/>
<path class="d" d="M219.6,212.485q10.722-6.191,21.437-12.392c2.228-1.287.216-4.745-2.019-3.454q-10.719,6.195-21.436,12.392c-2.229,1.287-.217,4.744,2.018,3.454Z"/>
<path class="e" d="M307.153,140.447c-.787-.457-1.632-.95-2.52-1.467a3.9,3.9,0,0,0-3.92-.012l-20.822,12.037a3.126,3.126,0,0,0-1.563,2.7c0,3.157,0,9.62,0,12.76a3.111,3.111,0,0,0,1.554,2.693c3.273,1.9,10.669,6.2,11.755,6.821"/>
<path class="a" d="M261.621,188.8c-.107-.022-.214-.041-.323-.056a3.116,3.116,0,0,0-2.973,1.092,1.935,1.935,0,0,0-.372,1.21,3.112,3.112,0,0,0,.871,1.714,25.169,25.169,0,0,0,6.312,5.417,8.547,8.547,0,0,0-4.56,4.269,5.366,5.366,0,0,0,.291,4.928,9.03,9.03,0,0,0,2.6,2.348l2.151,1.483c1.083.746,2.313,1.529,3.612,1.319a2.379,2.379,0,0,1,.891-.081,1.64,1.64,0,0,1,.781.559l1.985,2.134c2.062-2.92,4.921-6.833,7-9.58A13.026,13.026,0,0,1,277.108,201a15.771,15.771,0,0,0-.787-2.17,10.376,10.376,0,0,0-3.428-3.416c-2.111-1.523-6.321-4.035-8.546-5.387A8.958,8.958,0,0,0,261.621,188.8Z"/>
<path class="a" d="M324.367,185.186a19.547,19.547,0,0,0-8.39.221c-5.508,1.072-10.885,1.945-15.087,4.861a17.406,17.406,0,0,0-4.826,5.147c-1.582,2.556-5.465,8.972-7.509,12.252-1.39-.859-3.3-2.258-4.9-3.385a2.307,2.307,0,0,0-3.165.48c-2.313,3.029-6.021,8.1-8.284,11.348a2.3,2.3,0,0,0,.313,3c2.948,2.767,7.767,7.177,10.638,8.692a8.139,8.139,0,0,0,5.6.682,16.909,16.909,0,0,0,5.434-2.338c-.015,4-.021,6.551-.021,6.551-.008,3.107.129,6.669.129,6.669-.069,1.676.811,4.5,2.185,5.444,1.222.843,2.852,1.222,6.518,1.889,8.535,1.552,16.074.426,25.818-1.161,1.611-.262,4.326-.974,5.2-2.024,1.111-1.333,1.053-2.744,1.113-4.729.461-15.271,1.349-26.656-1.319-39.685-.835-4.078-2-8.318-4.919-11.285A9.4,9.4,0,0,0,324.367,185.186Z"/>
<path class="a" d="M296.249,178.3a13.18,13.18,0,0,0,9.752,4l1.461,4.989c2.7-.795,5.585-1.318,8.515-1.888.5-.1.982-.179,1.453-.252l.176-.115a42.943,42.943,0,0,1-7.655-11.347s-.208-.512-.5-1.236a6.737,6.737,0,0,0,2.619-2.88,7.214,7.214,0,0,0-.63-7.594,5.5,5.5,0,0,0-7.076-1.209c-.706-1.825-1.675-5.56-1.894-6.3a63.2,63.2,0,0,0-6.8-4.227l-.142.189a23.549,23.549,0,0,0-4.12,18.329A18.537,18.537,0,0,0,296.249,178.3Z"/>
<path class="f" d="M331.617,173.51l.072-.126a22.094,22.094,0,0,0,2.75-13.893c-1.384-9.628-9.571-17.685-19.287-18.235a22.769,22.769,0,0,0-19.479,8.991,63.2,63.2,0,0,1,6.8,4.227c.219.74,1.188,4.475,1.894,6.3a5.5,5.5,0,0,1,7.076,1.209,7.214,7.214,0,0,1,.63,7.594,6.737,6.737,0,0,1-2.619,2.88c.3.743.5,1.236.5,1.236a42.943,42.943,0,0,0,7.655,11.347l.077.076a20.539,20.539,0,0,1,4.955-.221,11.861,11.861,0,0,1,2.572-3.324C327.949,178.558,329.932,176.446,331.617,173.51Z"/>
<path class="d" d="M272.319,211.589a3.363,3.363,0,0,0-2.639-1.147,3.158,3.158,0,0,1-2.383-.519,20.484,20.484,0,0,1-4.406-3.2c-2.414-2.69.889-5.744,3.255-6.814,1.431-.647,1.168-2.735,0-3.454a23.63,23.63,0,0,1-4.208-3.263,16,16,0,0,1-1.7-1.841c-.326-.441-.387-.327-.069-.525,1.114-.692,2.983.821,3.865,1.355,1.209.732,2.417,1.463,3.618,2.206s2.4,1.493,3.563,2.29a11.144,11.144,0,0,1,3.1,2.683c.883,1.316,1.083,3.052,1.839,4.459a23.427,23.427,0,0,0,1.964,2.692,2.063,2.063,0,0,0,2.736.717,2.013,2.013,0,0,0,.718-2.736,24.183,24.183,0,0,1-1.884-2.549c-.79-1.405-.988-3.057-1.818-4.446-1.512-2.528-4.393-4.166-6.822-5.7-2.492-1.578-5.076-3.482-7.826-4.571-3.009-1.191-7.6.159-7.23,4.1.182,1.947,1.938,3.563,3.271,4.849a28.471,28.471,0,0,0,4.867,3.743v-3.454c-3.953,1.788-7.242,6.163-5.6,10.643.854,2.33,2.873,3.627,4.828,4.974a20.256,20.256,0,0,0,2.98,1.883,6.422,6.422,0,0,0,1.594.518c.521.089,1.516-.158,1.956.027l-.883-.514a2.488,2.488,0,0,1,.487.435c1.8,1.842,4.632-.987,2.828-2.828Z"/>
<path class="a" d="M334.206,303.09l-1-.539h0c-3.163,1.523-13.135,1.711-15.024.344-3.607,4.147-8.805,4.748-13.478,4.119a7.888,7.888,0,0,1-1.88-.376A13.105,13.105,0,0,1,298.288,304c-.013-.013-.031-.02-.044-.033l-.575.052c-.771-.462-3.122.014-4.085,1.465s-.93,4.242-.385,5.9c1.186,3.605,4.656,5.433,8.226,6.719a21.53,21.53,0,0,0,11.545,1.028,6.029,6.029,0,0,0,3.849-2.99,7.929,7.929,0,0,0,.879-2.816l6.14,1.412a15.575,15.575,0,0,0,3.833.493c.572,0,1.172-.038,1.833-.107a6.081,6.081,0,0,0,4.575-2.478,7.918,7.918,0,0,0,.9-3.766C335.019,307.559,334.164,304.4,334.206,303.09Z"/>
<path class="g" d="M311.611,247.444a46.6,46.6,0,0,1-8.606-.741c-4.126-.75-5.673-1.137-6.962-2.229-.076,9.009.637,44.383,1.336,57.241l.213,1.067c.308,1.541,2.7,2.852,5.225,3.855a7.888,7.888,0,0,0,1.88.376c4.673.629,9.871.028,13.477-4.119,2.311,1.671,16.719,1.02,15.964-1.56-.465-12.777-.875-38.592-.5-50.05,0,0-.1-3.93-.188-7.27a13.644,13.644,0,0,1-4.624,1.528A110.386,110.386,0,0,1,311.611,247.444Z"/>
<path class="d" d="M294.042,246.951c.046,14.883.418,29.777.919,44.651.115,3.414.238,6.828.424,10.239.139,2.56,4.14,2.576,4,0-.809-14.858-1.011-29.767-1.236-44.642-.051-3.416-.1-6.832-.107-10.248-.008-2.574-4.008-2.579-4,0Z"/>
<path class="d" d="M331.635,251.284c-.443,13.931-.095,27.915.256,41.845.084,3.321.18,6.642.315,9.961.1,2.565,4.1,2.578,4,0-.566-13.933-.753-27.9-.713-41.842.01-3.322.036-6.644.142-9.964.082-2.575-3.918-2.572-4,0Z"/>
<path class="d" d="M315.942,265.474c-.566,11-.867,22.041-.981,33.056-.019,1.9-.086,3.821.056,5.716.191,2.552,4.192,2.572,4,0-.32-4.266-.026-8.636.07-12.906q.212-9.342.557-18.682c.087-2.4.174-4.79.3-7.184.132-2.572-3.868-2.565-4,0Z"/>
<path class="d" d="M295.664,303.313c.5,1.954,2.32,3.22,4.016,4.1a14.627,14.627,0,0,0,3.216,1.339,20.981,20.981,0,0,0,3.27.417,16.789,16.789,0,0,0,11.956-3.428,2.012,2.012,0,0,0,0-2.829,2.048,2.048,0,0,0-2.828,0,12.557,12.557,0,0,1-8.535,2.293,11.27,11.27,0,0,1-4.476-.958,10.754,10.754,0,0,1-2.133-1.222,5.67,5.67,0,0,1-.553-.543q.128.15-.069-.14c.062.165.059.135-.007-.089-.641-2.491-4.5-1.435-3.857,1.063Z"/>
<path class="d" d="M318.412,305.173a23.446,23.446,0,0,0,7.817.6,21.23,21.23,0,0,0,7.984-1.492,2.018,2.018,0,0,0,.718-2.737,2.046,2.046,0,0,0-2.737-.717c-.359.167.469-.157.066-.025-.1.031-.192.07-.289.1-.234.08-.471.148-.71.211-.553.145-1.115.254-1.679.346-.14.023-.281.043-.421.064-.239.038.319-.035-.075.011-.33.038-.66.076-.99.107q-1.026.1-2.056.137a36.485,36.485,0,0,1-3.913-.036q-.41-.027-.816-.067c-.154-.016-.308-.038-.462-.052.541.049.054.007-.047-.009a9.712,9.712,0,0,1-1.327-.3,2,2,0,1,0-1.063,3.857Z"/>
<path class="d" d="M298.679,302.288a5.363,5.363,0,0,0-4.916.409,6,6,0,0,0-2.862,4.808,10.49,10.49,0,0,0,4.785,10.024,24.754,24.754,0,0,0,12.463,3.948c4.221.213,8.782-.681,10.685-4.92,1.634-3.642.976-7.937.111-11.686-.578-2.507-4.436-1.446-3.857,1.063a23.545,23.545,0,0,1,.729,5.828,8.735,8.735,0,0,1-.174,1.752c-.062.272-.126.542-.21.808-.026.083-.315.786-.123.372-1.716,3.7-6.969,3.085-10.281,2.36-3.249-.712-7.566-2.081-9.389-5.123a6.272,6.272,0,0,1-.69-4.541,1.633,1.633,0,0,1,.959-1.311c.269-.124.588-.128.85-.247.127-.057.271.088-.1-.09,2.31,1.108,4.341-2.34,2.019-3.454Z"/>
<path class="d" d="M332.206,303.09a25.206,25.206,0,0,0,.643,4.47,3.931,3.931,0,0,1,.1.607c0-.526-.016-.118,0,.021a5.979,5.979,0,0,1,.027.857c-.01.242-.033.483-.052.724-.035.469.059-.207-.03.22-.052.251-.1.5-.165.749-.02.074-.209.637-.143.474s-.2.349-.228.415q-.2.283,0,.027c-.056.069-.114.135-.174.2a4.862,4.862,0,0,1-.448.425c.313-.263-.172.1-.248.15-.181.109-.367.2-.555.3q-.318.145-.023.01c-.085.033-.171.063-.257.091a9.865,9.865,0,0,1-1.234.3q-.22.034.088-.012c-.15.016-.3.03-.451.043-.249.02-.5.037-.748.048-.465.02-.93.021-1.395,0-.224-.012-.448-.035-.672-.051-.24-.028-.255-.028-.045,0-.1-.014-.195-.028-.292-.044-.514-.083-1.024-.191-1.531-.31a2,2,0,0,0-1.063,3.857c4.14.969,10.054,1.11,12.544-3.09a9.421,9.421,0,0,0,1.043-5.789c-.126-.973-.306-1.934-.477-2.9-.038-.211-.075-.422-.109-.634-.017-.1-.033-.2-.049-.3q-.05-.345.011.1a2.778,2.778,0,0,1-.064-.952,2,2,0,0,0-4,0Z"/>
<path class="d" d="M292.173,232.7c0,2.224.07,4.445.129,6.669.063,2.424.808,5.265,2.77,6.858,1.686,1.369,4,1.759,6.067,2.156a54.98,54.98,0,0,0,9.16,1.048c6.376.139,12.791-.873,19.056-1.962,2.364-.41,5.2-1.114,6.616-3.23,1.633-2.447,1.179-6.006,1.275-8.8.415-12.189.989-24.414-1.416-36.452-1.069-5.353-2.823-11.227-7.689-14.344-4.71-3.016-10.633-1.59-15.72-.58a42.6,42.6,0,0,0-9.74,2.886,19.491,19.491,0,0,0-7.888,6.754c-2.886,4.234-5.36,8.778-8.074,13.125-1.368,2.19,2.091,4.2,3.453,2.019,2.258-3.616,4.457-7.267,6.683-10.9a20.875,20.875,0,0,1,4.129-5.241,18.928,18.928,0,0,1,7.089-3.515c2.694-.787,5.465-1.284,8.218-1.812a19.305,19.305,0,0,1,6.879-.408c4.59.809,6.791,5.194,7.928,9.305,2.862,10.336,2.73,21.3,2.4,31.921-.094,2.968-.207,5.936-.3,8.9-.06,1.85.5,4.727-1.555,5.624-2.331,1.016-5.108,1.186-7.59,1.565-2.78.424-5.569.8-8.375,1a52.94,52.94,0,0,1-9.088-.078,34.95,34.95,0,0,1-7.958-1.539,2.5,2.5,0,0,1-1.467-1.085,6.3,6.3,0,0,1-.857-3.076q-.13-3.4-.127-6.806c0-2.574-4-2.578-4,0Z"/>
<path class="d" d="M324.6,185.469a29.117,29.117,0,0,1,3.746-4.384,44.315,44.315,0,0,0,4.225-5.31,24.752,24.752,0,0,0,4.069-13.234,23.8,23.8,0,0,0-11.228-20.03c-6.973-4.339-15.857-4.2-23.062-.472a25.271,25.271,0,0,0-13.34,21.2c-.477,9.915,5.863,21.4,16.988,21.063,2.568-.078,2.579-4.078,0-4-8.238.25-12.846-8.116-13.01-15.42a21.294,21.294,0,0,1,10.08-18.665c5.777-3.485,13.279-4.137,19.291-.86A19.771,19.771,0,0,1,332.6,161.014a20.834,20.834,0,0,1-3.586,12.907,43.092,43.092,0,0,1-4.094,5,28.639,28.639,0,0,0-3.768,4.527c-1.309,2.223,2.148,4.238,3.454,2.018Z"/>
<path class="d" d="M288.855,205.485c-2.112-1.406-4.5-4.022-7.256-3.548-2.356.406-3.587,2.794-4.9,4.561q-2.342,3.151-4.625,6.347c-1.393,1.949-3.062,3.961-1.843,6.461a8.914,8.914,0,0,0,2.187,2.446c.9.833,1.812,1.659,2.735,2.469a56.614,56.614,0,0,0,5.584,4.45,10.626,10.626,0,0,0,7,1.983,16.9,16.9,0,0,0,7.131-2.567c4.853-3,8.345-7.672,11.645-12.22a2.015,2.015,0,0,0-.717-2.736,2.046,2.046,0,0,0-2.737.717,50.076,50.076,0,0,1-7.917,9.127c-2.711,2.288-6.982,4.777-10.606,3.287a17.577,17.577,0,0,1-4.1-2.787c-1.557-1.266-3.059-2.6-4.539-3.954a15.061,15.061,0,0,1-1.85-1.716c-.461-.6.034-.9.448-1.486q1.758-2.493,3.562-4.954,1.042-1.428,2.1-2.848a16.812,16.812,0,0,1,1.783-2.377c.213-.2.22-.274.509-.278.008,0,.831.593,1.065.758,1.1.783,2.2,1.57,3.326,2.319,2.149,1.431,4.154-2.032,2.019-3.454Z"/>
<path class="d" d="M295.442,152.4a47.977,47.977,0,0,1,6.019,3.8l-.92-1.195c.583,1.987,1.068,4,1.766,5.954a2,2,0,1,0,3.857-1.063c-.418-1.17-.763-2.367-1.1-3.562q-.222-.791-.438-1.581a3.118,3.118,0,0,0-.943-1.85,41.169,41.169,0,0,0-6.221-3.958,2,2,0,0,0-2.019,3.454Z"/>
<path class="d" d="M305.245,162.591a4.99,4.99,0,0,1,.549-.349c.171-.092.43-.158.11-.06.2-.063.412-.115.617-.176.434-.13-.313-.006.106-.023.217-.009.431-.023.648-.015.2.007.469.045.118-.01a7.763,7.763,0,0,1,1.113.285q.32.123-.02-.014c.1.046.2.094.3.146.145.077.288.16.426.25.092.059.182.121.271.186q-.281-.219-.021,0c.116.116.24.222.353.343.075.08.147.162.216.247q-.187-.247.013.033c.094.156.195.3.283.464.057.106.112.213.164.322q-.119-.3.008.021c.069.2.137.4.192.6s.1.412.135.62c-.083-.436.015.187.021.284.012.214.015.427.009.641,0,.066-.042.688-.021.467s-.071.391-.087.46c-.046.21-.1.417-.164.623s-.132.408-.214.606c.156-.376-.106.19-.144.261-.1.183-.2.363-.318.537-.065.1-.132.2-.2.295q.171-.215.038-.051a8.817,8.817,0,0,1-.877.884c-.109.09-.091.075.056-.043-.1.068-.193.133-.293.2-.174.108-.357.195-.537.293-.13.061-.105.05.077-.032-.11.04-.22.076-.332.109a5.365,5.365,0,0,1-.687.141,2.005,2.005,0,0,0-1.4,2.46,2.063,2.063,0,0,0,2.46,1.4c3.911-.569,6.344-4.575,6.623-8.235a8.089,8.089,0,0,0-5.733-8.517,7.056,7.056,0,0,0-5.873.9,2.046,2.046,0,0,0-.717,2.736,2.022,2.022,0,0,0,2.736.718Z"/>
<path class="d" d="M308.023,174.225a35.888,35.888,0,0,0,3.473,6.308,38.778,38.778,0,0,0,4.7,5.921,2,2,0,1,0,2.828-2.828,27.7,27.7,0,0,1-2.1-2.385c-.031-.04-.374-.479-.1-.123-.087-.112-.172-.225-.257-.338q-.286-.378-.563-.762-.537-.743-1.047-1.5c-.657-.981-1.283-1.982-1.866-3.009-.261-.461-.513-.926-.751-1.4q-.156-.308-.3-.62c-.055-.118-.107-.236-.162-.354-.164-.354.165.4.011.029a2.053,2.053,0,0,0-2.46-1.4,2.019,2.019,0,0,0-1.4,2.46Z"/>
<path class="d" d="M295.206,160.915a8.578,8.578,0,0,1,1-5.531,17.945,17.945,0,0,1,3.183-4.585,29.559,29.559,0,0,1,10.09-6.562,2.068,2.068,0,0,0,1.4-2.461,2.012,2.012,0,0,0-2.46-1.4c-4.535,1.912-8.941,4.339-12.272,8.042-3.165,3.518-5.992,8.693-4.8,13.557.614,2.5,4.472,1.44,3.858-1.063Z"/>
<path class="e" d="M335.656,163.492a1.5,1.5,0,0,1-.494,1.126,35.718,35.718,0,0,1-8.212,5.845,36.118,36.118,0,0,1-15.438,3.31,40.322,40.322,0,0,1-11.175-1.795,31.745,31.745,0,0,1-9.272-5.414,3.292,3.292,0,0,1-1.23-2.571v-3.667a1.515,1.515,0,0,1,2.293-1.3c2.465,1.477,5.2,3.486,8.216,4.611a34.736,34.736,0,0,0,11.707,2.136,29.005,29.005,0,0,0,12.057-3.115c2.585-1.17,5.049-3.159,7.47-4.828a2.648,2.648,0,0,1,4.078,2.258Z"/>
<path class="d" d="M333.656,163.492c.032-.313.311-.359-.166-.059a3.577,3.577,0,0,0-.4.352q-.487.427-.982.847c-.687.58-1.387,1.143-2.116,1.669a25.394,25.394,0,0,1-5.105,2.906,34.51,34.51,0,0,1-10.625,2.518,36.935,36.935,0,0,1-9.6-.671,27.021,27.021,0,0,1-10.816-4.862c-.926-.674-1.958-1.223-2.008-2.452-.04-1,.092-2.019,0-3.013-.048-.514,0-.377-.311.05-.162.22-.856-.444-.067.176a5.715,5.715,0,0,0,.513.319c.47.293.937.592,1.4.889a37.815,37.815,0,0,0,5.383,2.972,30.749,30.749,0,0,0,22.2.965,35.523,35.523,0,0,0,5.885-2.62c1.033-.6,2.02-1.281,3-1.973.492-.349.98-.7,1.471-1.053a6.567,6.567,0,0,1,1.414-.983c1.487-.474.93,3.234.93,4.023,0,2.574,4,2.578,4,0,0-2.6.414-5.534-2.019-7.252a4.645,4.645,0,0,0-5.432.111c-1.979,1.343-3.842,2.854-5.951,4a26.349,26.349,0,0,1-12.691,3.416,28.747,28.747,0,0,1-12.419-2.847c-2.029-1.042-3.855-2.405-5.837-3.521a3.577,3.577,0,0,0-5.283,1.8,11.339,11.339,0,0,0-.189,3.453,7.221,7.221,0,0,0,.876,4.244c1.1,1.657,3.213,2.886,4.856,3.945a29.043,29.043,0,0,0,6.238,3.064,39.255,39.255,0,0,0,12.7,1.887,36.894,36.894,0,0,0,13.83-2.89A29.517,29.517,0,0,0,333,169.015c1.9-1.457,4.4-2.958,4.656-5.523a2.014,2.014,0,0,0-2-2A2.045,2.045,0,0,0,333.656,163.492Z"/>
<path class="d" d="M308.163,138.72c-2.341-1.361-4.636-2.942-7.454-1.93a22.613,22.613,0,0,0-3.509,1.9l-3.747,2.166-7.567,4.375L282.3,147.3a28.811,28.811,0,0,0-4.135,2.5c-1.855,1.552-1.842,3.681-1.842,5.893s0,4.4,0,6.6c0,1.974-.364,4.419.462,6.259.838,1.865,2.679,2.689,4.354,3.661q4.742,2.752,9.483,5.5c2.234,1.288,4.251-2.167,2.019-3.454q-3.375-1.947-6.742-3.91l-4.189-2.432c-.555-.323-1.218-.564-1.373-1.253a11.366,11.366,0,0,1-.014-2.326q0-2.856,0-5.711v-2.612a14.035,14.035,0,0,1,.009-2.4c.167-.907,1.127-1.2,1.854-1.622l3.616-2.091,6.64-3.838,7.162-4.141c.9-.521,2.065-1.522,3.161-1.466,1.123.058,2.427,1.172,3.376,1.723,2.229,1.3,4.245-2.158,2.019-3.454Z"/>
</g>
</svg>