<svg id="Layer_1" data-name="Layer 1" xmlns="http://www.w3.org/2000/svg" viewBox="0 0 132 19.14"><defs><style>.cls-1{fill:#fe4343;}</style></defs><path class="cls-1" d="M10.93,4.09,8.49,9,3,9.84a1.2,1.2,0,0,0-.67,2l4,3.85-.93,5.44a1.19,1.19,0,0,0,1.73,1.26L12,19.86l4.89,2.57a1.19,1.19,0,0,0,1.73-1.26l-.93-5.44,3.95-3.85a1.2,1.2,0,0,0-.66-2L15.51,9,13.07,4.09A1.19,1.19,0,0,0,10.93,4.09Z" transform="translate(-2 -3.43)"/><path class="cls-1" d="M38.93,4.09,36.49,9,31,9.84a1.2,1.2,0,0,0-.67,2l4,3.85-.93,5.44a1.19,1.19,0,0,0,1.73,1.26L40,19.86l4.89,2.57a1.19,1.19,0,0,0,1.73-1.26l-.93-5.44,4-3.85a1.2,1.2,0,0,0-.66-2L43.51,9,41.07,4.09A1.19,1.19,0,0,0,38.93,4.09Z" transform="translate(-2 -3.43)"/><path class="cls-1" d="M66.93,4.09,64.49,9,59,9.84a1.2,1.2,0,0,0-.67,2l4,3.85-.93,5.44a1.19,1.19,0,0,0,1.73,1.26L68,19.86l4.89,2.57a1.19,1.19,0,0,0,1.73-1.26l-.93-5.44,4-3.85a1.2,1.2,0,0,0-.66-2L71.51,9,69.07,4.09A1.19,1.19,0,0,0,66.93,4.09Z" transform="translate(-2 -3.43)"/><path class="cls-1" d="M94.93,4.09,92.49,9,87,9.84a1.2,1.2,0,0,0-.67,2l4,3.85-.93,5.44a1.19,1.19,0,0,0,1.73,1.26L96,19.86l4.89,2.57a1.19,1.19,0,0,0,1.73-1.26l-.93-5.44,4-3.85a1.2,1.2,0,0,0-.66-2L99.51,9,97.07,4.09A1.19,1.19,0,0,0,94.93,4.09Z" transform="translate(-2 -3.43)"/><path class="cls-1" d="M122.93,4.09,120.49,9l-5.46.8a1.2,1.2,0,0,0-.67,2l4,3.85-.94,5.44a1.19,1.19,0,0,0,1.73,1.26L124,19.86l4.89,2.57a1.19,1.19,0,0,0,1.73-1.26l-.93-5.44,3.95-3.85a1.2,1.2,0,0,0-.66-2L127.51,9l-2.44-4.95A1.19,1.19,0,0,0,122.93,4.09Z" transform="translate(-2 -3.43)"/></svg>